<?xml version="1.0" encoding="iso-8859-1"?>
<!-- Generator: Adobe Illustrator 19.0.0, SVG Export Plug-In . SVG Version: 6.00 Build 0)  -->
<svg version="1.1" id="Capa_1" xmlns="http://www.w3.org/2000/svg" xmlns:xlink="http://www.w3.org/1999/xlink" x="0px" y="0px"
	 viewBox="0 0 512.067 512.067" style="enable-background:new 0 0 512.067 512.067;" xml:space="preserve">
<g transform="translate(0 -1)">
	<g transform="translate(1 2)">
		<g>
			<path style="fill:#FDD834;" d="M68.803,478.565L7.534,502.544l11.008-28.075l33.195-12.971l8.619-3.413
				C64.922,464.05,67.836,471.114,68.803,478.565z"/>
			<path style="fill:#FDD834;" d="M392.984,202.768L172.739,423.013l-6.144-6.144c-3.917-3.948-9.006-6.523-14.507-7.339
				l223.829-223.829L392.984,202.768z"/>
			<path style="fill:#FDD834;" d="M467.651,93.882l-18.347,18.432l-24.491,24.405l-48.896,48.981L138.862,422.757
				c-5.081,5.057-11.153,9.008-17.835,11.605l-60.672,23.723l-8.619,3.413l-33.195,12.971l12.971-33.195l27.136-69.376
				c2.588-6.661,6.541-12.707,11.605-17.749l16.811-16.811L307.31,117.093l48.981-48.896l24.405-24.491l18.347-18.347
				C410.416,14.015,425.817,7.633,441.88,7.61c1.621,0,3.157,0.085,4.779,0.171c0.768,0.085,1.451,0.171,2.219,0.256
				c1.451,0.171,2.816,0.341,4.267,0.597c0.161,0.07,0.337,0.099,0.512,0.085c1.877,0.427,3.669,0.853,5.461,1.365
				c1.451,0.427,2.901,0.939,4.267,1.451c1.004,0.339,1.975,0.767,2.901,1.28c1.02,0.4,2.017,0.856,2.987,1.365
				c2.13,1.047,4.184,2.245,6.144,3.584C491.208,41.768,487.964,73.563,467.651,93.882z"/>
		</g>
		<path style="fill:#FFEB3A;" d="M467.651,93.882l-18.347,18.432l-24.491,24.405l-48.896,48.981L138.862,422.757
			c-5.081,5.057-11.153,9.008-17.835,11.605l-60.672,23.723l-8.619,3.413l-33.195,12.971l12.971-33.195l27.136-69.376
			c2.588-6.661,6.541-12.707,11.605-17.749l16.811-16.811L307.31,117.093l48.981-48.896l24.405-24.491l18.347-18.347
			C410.416,14.015,425.817,7.633,441.88,7.61c1.621,0,3.157,0.085,4.779,0.171c0.768,0.085,1.451,0.171,2.219,0.256
			c1.451,0.171,2.816,0.341,4.267,0.597c0.161,0.07,0.337,0.099,0.512,0.085c1.877,0.427,3.669,0.853,5.461,1.365
			c1.451,0.427,2.901,0.939,4.267,1.451c1.004,0.339,1.975,0.767,2.901,1.28c1.02,0.4,2.017,0.856,2.987,1.365
			c2.13,1.047,4.184,2.245,6.144,3.584C491.208,41.768,487.964,73.563,467.651,93.882z"/>
		<polygon style="fill:#F3D55B;" points="466.371,129.381 441.88,153.786 356.291,68.197 380.696,43.706 		"/>
		<path style="fill:#E91E63;" d="M484.718,25.36c-2.818-2.859-5.936-5.405-9.301-7.595c-1.96-1.339-4.014-2.537-6.144-3.584
			c-0.97-0.509-1.967-0.965-2.987-1.365c-0.927-0.513-1.898-0.941-2.901-1.28c-1.365-0.512-2.816-1.024-4.267-1.451
			c-1.792-0.512-3.584-0.939-5.461-1.365c-0.175,0.013-0.351-0.016-0.512-0.085c-1.451-0.256-2.816-0.427-4.267-0.597
			c-0.768-0.085-1.451-0.171-2.219-0.256c-1.621-0.085-3.157-0.171-4.779-0.171c-16.064,0.023-31.465,6.405-42.837,17.749
			l-18.347,18.347l68.608,68.608l17.067,17.067l18.347-18.432c11.351-11.349,17.728-26.743,17.728-42.795
			S496.069,36.709,484.718,25.36z"/>
		<path style="fill:#AD1457;" d="M484.718,110.949l-18.347,18.432l-17.067-17.067l18.347-18.432
			c20.313-20.32,23.556-52.114,7.765-76.117c3.365,2.189,6.483,4.736,9.301,7.595c11.351,11.349,17.728,26.743,17.728,42.795
			S496.069,99.6,484.718,110.949z"/>
		<g>
			<polygon style="fill:#F3D55B;" points="441.88,153.786 392.984,202.768 307.31,117.093 356.291,68.197 			"/>
			<path style="fill:#F3D55B;" d="M68.803,478.565L7.534,502.544l23.979-61.269C50.974,443.783,66.294,459.103,68.803,478.565z"/>
			<path style="fill:#F3D55B;" d="M172.739,423.013l-16.811,16.811c-5.081,5.057-11.153,9.008-17.835,11.605l-69.291,27.136
				c-2.509-19.462-17.829-34.782-37.291-37.291l27.136-69.376c2.588-6.661,6.541-12.707,11.605-17.749l16.811-16.811l6.144,6.144
				c4.876,4.861,7.616,11.462,7.616,18.347c0,6.885-2.74,13.486-7.616,18.347c4.842-4.901,11.458-7.639,18.347-7.595
				c10.494-0.003,19.957,6.318,23.973,16.013c4.016,9.695,1.796,20.856-5.626,28.275c4.861-4.876,11.462-7.616,18.347-7.616
				s13.486,2.74,18.347,7.616L172.739,423.013z"/>
		</g>
		<polygon style="fill:#CFD8DC;" points="449.304,112.314 380.696,43.706 356.291,68.197 424.814,136.72 441.88,153.786 
			466.371,129.381 		"/>
		<g>
			<polygon style="fill:#607D8B;" points="466.371,129.381 441.88,153.786 424.814,136.72 449.304,112.314 			"/>
			<polygon style="fill:#607D8B;" points="424.814,136.72 356.291,68.197 307.31,117.093 375.918,185.701 392.984,202.768 
				441.88,153.786 			"/>
		</g>
		<g>
			
				<rect x="374.29" y="157.672" transform="matrix(-0.7065 0.7077 -0.7077 -0.7065 817.9068 0.2712)" style="fill:#37474F;" width="69.214" height="24.132"/>
			<path style="fill:#37474F;" d="M68.803,478.565L7.534,502.544l23.979-61.269C50.974,443.783,66.294,459.103,68.803,478.565z"/>
		</g>
		<path style="fill:#FF9801;" d="M166.595,416.869c-4.858-4.881-11.46-7.625-18.347-7.625c-6.886,0-13.489,2.744-18.347,7.625
			c7.422-7.419,9.643-18.579,5.626-28.275c-4.016-9.695-13.479-16.016-23.973-16.013c-6.889-0.044-13.505,2.694-18.347,7.595
			c4.876-4.861,7.616-11.462,7.616-18.347c0-6.885-2.74-13.486-7.616-18.347l-6.144-6.144l-16.811,16.811
			c-5.064,5.042-9.017,11.088-11.605,17.749l-27.136,69.376c9.457,1.242,18.243,5.56,25.003,12.288
			c1.418,1.384,2.704,2.898,3.84,4.523c4.567,5.965,7.481,13.029,8.448,20.48l69.291-27.136c6.681-2.598,12.753-6.549,17.835-11.605
			l16.811-16.811L166.595,416.869z"/>
		<path style="fill:#F57C00;" d="M172.739,423.013l-16.811,16.811c-5.081,5.057-11.153,9.008-17.835,11.605l-69.291,27.136
			c-0.967-7.451-3.881-14.515-8.448-20.48l60.672-23.723c6.681-2.598,12.753-6.549,17.835-11.605l13.227-13.227
			c5.501,0.816,10.59,3.391,14.507,7.339L172.739,423.013z"/>
	</g>
	<g>
		<path d="M11.642,512.477l130.6-51.104c7.77-3.03,14.825-7.643,20.717-13.546l16.779-16.779l0.013-0.009l0.009-0.014
			l220.233-220.237l48.946-48.942l0.004-0.006l24.464-24.464l0.003-0.002l0.002-0.003l18.353-18.352
			c17.494-17.448,24.34-42.909,17.956-66.777c-6.384-23.868-25.027-42.512-48.896-48.896c-23.868-6.384-49.329,0.462-66.777,17.956
			l-91.771,91.767L65.238,350.11c-5.905,5.89-10.518,12.945-13.546,20.717L0.588,501.423c-1.236,3.157-0.486,6.746,1.911,9.143
			C4.896,512.963,8.485,513.713,11.642,512.477z M173.717,412.931l-0.083-0.083c-7.09-7.04-16.899-10.637-26.86-9.848
			c0.762-9.54-2.506-18.964-9.011-25.984s-15.654-10.995-25.225-10.959c-0.84,0-1.644,0.182-2.473,0.241
			c0.791-9.961-2.806-19.772-9.847-26.862l-0.085-0.085l208.177-208.177l73.583,73.583L173.717,412.931z M381.725,57.76
			l73.583,73.583l-12.405,12.404L369.32,70.163L381.725,57.76z M357.254,82.231l73.582,73.582l-36.878,36.876l-73.583-73.583
			L357.254,82.231z M406.113,33.373c20.337-20.214,53.195-20.164,73.471,0.112s20.326,53.134,0.112,73.471l-12.321,12.321
			l-73.583-73.583L406.113,33.373z M67.584,377.044c2.172-5.577,5.483-10.64,9.721-14.867l10.761-10.761l0.085,0.085
			c6.792,6.81,6.792,17.832,0,24.642c-2.156,2.155-2.997,5.297-2.208,8.242c0.789,2.944,3.089,5.244,6.033,6.033
			s6.086-0.053,8.242-2.208c6.905-6.558,17.737-6.558,24.642,0c6.792,6.808,6.792,17.829,0,24.637
			c-2.156,2.155-2.997,5.297-2.208,8.242c0.789,2.944,3.089,5.244,6.033,6.033c2.944,0.789,6.086-0.053,8.242-2.208
			c6.808-6.792,17.829-6.792,24.638,0l0.085,0.085l-10.756,10.757c-4.227,4.238-9.29,7.549-14.867,9.725l-60.392,23.63
			c-2.527-7.344-6.67-14.027-12.125-19.556c-5.529-5.454-12.212-9.596-19.556-12.122L67.584,377.044z M37.762,453.254
			c10.463,3.384,18.666,11.585,22.051,22.048l-36.226,14.175L37.762,453.254z"/>
		<path d="M302.271,162.014l-6.117,6.121c-3.3,3.34-3.283,8.718,0.038,12.036c3.321,3.319,8.699,3.332,12.036,0.03l6.117-6.121
			c3.304-3.339,3.288-8.72-0.034-12.04C310.989,158.72,305.608,158.709,302.271,162.014z"/>
		<path d="M271.688,192.606L130.975,333.319c-3.332,3.332-3.332,8.735,0,12.067c3.332,3.332,8.735,3.332,12.067,0l140.712-140.712
			c3.332-3.332,3.332-8.735,0-12.067C280.422,189.274,275.02,189.274,271.688,192.606z"/>
	</g>
</g>
<g>
</g>
<g>
</g>
<g>
</g>
<g>
</g>
<g>
</g>
<g>
</g>
<g>
</g>
<g>
</g>
<g>
</g>
<g>
</g>
<g>
</g>
<g>
</g>
<g>
</g>
<g>
</g>
<g>
</g>
</svg>
