<svg id="Layer_1" enable-background="new 0 0 256 256" height="512" viewBox="0 0 256 256" width="512" xmlns="http://www.w3.org/2000/svg"><g><g><g><g><path d="m122.68 163.1-11.21 26.19 26.18-11.22 17.444-7.49 29.286-29.28v67.23c0 5.72-4.64 10.36-10.35 10.36h-148.88c-1.657 0-3-1.343-3-3v-207.89c0-1.657 1.343-3 3-3h148.88c5.716 0 10.35 4.634 10.35 10.35v76.1l-54.21 54.206z" fill="#13bf6d"/></g><g><path d="m174.425 210.5h-123.26c-1.381 0-2.5-1.119-2.5-2.5s1.119-2.5 2.5-2.5h120.76v-54.24c0-1.381 1.119-2.5 2.5-2.5s2.5 1.119 2.5 2.5v56.74c0 1.381-1.119 2.5-2.5 2.5zm-133.26 0h-6.24c-1.381 0-2.5-1.119-2.5-2.5s1.119-2.5 2.5-2.5h6.24c1.381 0 2.5 1.119 2.5 2.5s-1.119 2.5-2.5 2.5z" fill="#76ffba"/></g><g><path d="m174.425 103.9c-1.381 0-2.5-1.119-2.5-2.5v-84.4c0-1.381 1.119-2.5 2.5-2.5s2.5 1.119 2.5 2.5v84.4c0 1.381-1.119 2.5-2.5 2.5z" fill="#76ffba"/></g><g><path d="m81.344 251-17.198-9.84-17.198 9.84v-32.109h34.396z" fill="#fc5d3d"/></g><g><path d="m55.944 35.297h94.65v60.27h-94.65z" fill="#efefef"/></g><g><g><path d="m239.614 86.071-10.905 10.918-24.936-24.931 10.909-10.919c4.298-4.309 11.28-4.309 15.589 0l9.343 9.353c4.308 4.299 4.308 11.28 0 15.579z" fill="#fc5d3d"/></g><g><g><path d="m203.773 72.058-19.393 19.392-54.21 54.206 24.924 24.924 29.286-29.28 44.328-44.311z" fill="#72c1e8"/></g><g><path d="m154.959 159.152c-.977-.977-.977-2.56 0-3.536l3.833-3.834c.977-.977 2.559-.976 3.536 0 .977.977.977 2.56 0 3.536l-3.833 3.834c-.976.976-2.558.976-3.536 0zm10.905-10.905c-.977-.976-.977-2.559 0-3.535l46.984-46.985-10.998-10.998c-.977-.976-.977-2.559 0-3.535.976-.977 2.56-.977 3.535 0l12.766 12.766c.977.976.977 2.559 0 3.535l-48.752 48.753c-.975.976-2.559.976-3.535-.001z" fill="#c5e5ff"/></g><g><path d="m155.094 170.58-17.444 7.49-14.97-14.97 7.49-17.444z" fill="#edaf85"/></g><g><path d="m137.65 178.07-26.18 11.22 11.21-26.19z" fill="#7a7380"/></g><g><path d="m226.939 87.575c-.977-.976-.977-2.559 0-3.535l5.058-5.058c.308-.309.315-.811 0-1.125l-3.115-3.116c-.976-.977-.976-2.56 0-3.536.977-.977 2.559-.976 3.536 0l3.113 3.114c2.265 2.262 2.266 5.932 0 8.197l-5.058 5.058c-.974.978-2.558.978-3.534.001z" fill="#ffcbc2"/></g></g></g></g><g><path d="m77.827 59.405h50.883c1.381 0 2.5-1.119 2.5-2.5s-1.119-2.5-2.5-2.5h-50.883c-1.381 0-2.5 1.119-2.5 2.5s1.119 2.5 2.5 2.5z"/><path d="m131.21 73.958c0-1.381-1.119-2.5-2.5-2.5h-50.883c-1.381 0-2.5 1.119-2.5 2.5s1.119 2.5 2.5 2.5h50.883c1.381 0 2.5-1.119 2.5-2.5z"/><path d="m241.382 68.726-9.344-9.355c-5.277-5.277-13.841-5.295-19.125.001l-26.033 26.042v-70.064c0-7.08-5.77-12.85-12.85-12.85h-148.88c-3.03 0-5.5 2.47-5.5 5.5v24.797h-6.495c-1.381 0-2.5 1.119-2.5 2.5s1.119 2.5 2.5 2.5h6.495v33.324h-6.495c-1.381 0-2.5 1.119-2.5 2.5s1.119 2.5 2.5 2.5h6.495v33.324h-6.495c-1.381 0-2.5 1.119-2.5 2.5s1.119 2.5 2.5 2.5h6.495v33.324h-6.495c-1.381 0-2.5 1.119-2.5 2.5s1.119 2.5 2.5 2.5h6.495v33.324h-6.495c-1.381 0-2.5 1.119-2.5 2.5s1.119 2.5 2.5 2.5h6.495v24.796c0 3.03 2.47 5.5 5.5 5.5h19.298v29.611c0 1.917 2.078 3.122 3.742 2.17l15.957-9.129 15.956 9.129c1.67.954 3.742-.257 3.742-2.17v-29.61h23.686c1.38 0 2.5-1.12 2.5-2.5s-1.12-2.5-2.5-2.5h-82.381c-.28 0-.5-.22-.5-.5v-24.796h5.596c1.381 0 2.5-1.119 2.5-2.5s-1.119-2.5-2.5-2.5h-5.596v-33.324h5.596c1.381 0 2.5-1.119 2.5-2.5s-1.119-2.5-2.5-2.5h-5.596v-33.324h5.596c1.381 0 2.5-1.119 2.5-2.5s-1.119-2.5-2.5-2.5h-5.596v-33.325h5.596c1.381 0 2.5-1.119 2.5-2.5s-1.119-2.5-2.5-2.5h-5.596v-33.324h5.596c1.381 0 2.5-1.119 2.5-2.5s-1.119-2.5-2.5-2.5h-5.596v-24.797c0-.28.22-.5.5-.5h148.88c4.32.01 7.84 3.53 7.85 7.85v75.062l-29.38 29.368c-.975.975-.975 2.565 0 3.54.95.94 2.6.94 3.54 0l47.73-47.73 8.929 8.929-70.067 70.068-8.929-8.929 8.198-8.197c.97-.97.97-2.56 0-3.54-.94-.94-2.59-.94-3.54 0l-9.96 9.96c-.172.175-.426.549-.54.824l-18.688 43.602c-.893 2.087 1.233 4.162 3.283 3.282l43.55-18.681c.337-.13.704-.398.864-.558l25.01-25.007v61.187c-.01 4.33-3.53 7.85-7.85 7.86h-46.5c-1.38 0-2.5 1.12-2.5 2.5s1.12 2.5 2.5 2.5h46.5c7.08 0 12.85-5.77 12.85-12.86v-66.186l43.59-43.584c.002-.001.004-.003.005-.004l10.907-10.917c5.297-5.289 5.28-13.847 0-19.113zm-162.538 177.963-13.456-7.699c-.769-.44-1.713-.44-2.483 0l-13.457 7.699v-25.299h29.396zm37.382-62.157 7.299-17.051 9.746 9.747zm21.994-9.428-12.574-12.574 5.365-12.491 19.703 19.7zm16.88-8.054-8.932-8.928 70.067-70.067 8.936 8.936c-7.201 7.198-62.863 62.851-70.071 70.059zm82.748-82.749c-.001.001-.002.002-.003.003l-9.139 9.148c-23.117-23.117.783.783-21.396-21.396l9.143-9.151c3.321-3.329 8.716-3.331 12.05.001l9.346 9.357c3.332 3.325 3.331 8.713-.001 12.038z"/><circle cx="80.59" cy="95.57" r="2.5"/><path d="m90.59 98.07h60c1.406 0 2.5-1.149 2.5-2.5v-60.27c0-1.387-1.108-2.5-2.5-2.5h-94.65c-1.412 0-2.5 1.166-2.5 2.5v60.27c0 1.352 1.112 2.5 2.5 2.5h14.65c1.38 0 2.5-1.12 2.5-2.5s-1.11-2.49-2.48-2.5c-.01 0-.01 0-.02 0h-12.15v-55.27h89.65v55.27h-57.5c-1.37 0-2.5 1.12-2.5 2.5s1.13 2.5 2.5 2.5z"/><circle cx="117.53" cy="218.89" r="2.5"/><path d="m145.43 126.85c-.976.977-.973 2.568 0 3.54 1.039 1.018 2.612.929 3.54 0 .964-.963.983-2.557 0-3.54-.95-.94-2.59-.94-3.54 0z"/></g></g><g><path d="m141 88.308h-2.891c-1.381 0-2.5-1.119-2.5-2.5s1.119-2.5 2.5-2.5h2.891c1.381 0 2.5 1.119 2.5 2.5s-1.119 2.5-2.5 2.5zm-12.891 0h-62.859c-1.381 0-2.5-1.119-2.5-2.5v-40.141c0-1.381 1.119-2.5 2.5-2.5s2.5 1.119 2.5 2.5v37.641h60.359c1.381 0 2.5 1.119 2.5 2.5s-1.119 2.5-2.5 2.5z" fill="#fff"/></g></g></svg>