<svg xmlns="http://www.w3.org/2000/svg" viewBox="0 0 183.21 155.35"><defs><style>.cls-1{fill:#63b7ab;opacity:0.7;}.cls-2{fill:#ff9d00;}.cls-3{fill:#ffdc2b;}.cls-4{fill:#ff8500;}.cls-5{fill:#ffb32c;}.cls-6{fill:#e29213;opacity:0.5;}.cls-17,.cls-21,.cls-32,.cls-7{fill:#fff;}.cls-8{fill:#a6d32e;}.cls-9{fill:#9abf28;}.cls-10{fill:#b8ce5d;}.cls-11,.cls-22{fill:#71ae26;}.cls-11,.cls-16,.cls-25{opacity:0.4;}.cls-12,.cls-23{fill:#4b8241;}.cls-13{fill:#396630;}.cls-14{fill:#c62a27;}.cls-15,.cls-25{fill:#af2323;}.cls-16{fill:#931c1c;}.cls-17,.cls-30{opacity:0.1;}.cls-18{fill:#0b3857;}.cls-19{fill:#0c3044;}.cls-20{fill:#0a2a38;}.cls-20,.cls-23{opacity:0.6;}.cls-21{opacity:0.05;}.cls-24{fill:#e9694a;}.cls-26{fill:#fd933d;}.cls-27{fill:#eabf8c;}.cls-28,.cls-30{fill:#d1a474;}.cls-29{fill:#ffdcae;}.cls-31{fill:#847657;}.cls-32,.cls-37{opacity:0.2;}.cls-33{fill:#72654a;}.cls-34{fill:#605136;}.cls-35{fill:#b9cc2b;}.cls-36{fill:#d2dd37;}.cls-37{fill:#689922;}.cls-38{fill:#f5ff78;}.cls-39{fill:#443e33;}.cls-40{fill:#ffdc48;}</style></defs><title>Asset 1</title><g id="Layer_2" data-name="Layer 2"><g id="Object"><ellipse class="cls-1" cx="94.95" cy="143.84" rx="70.05" ry="11.51"/><path class="cls-2" d="M177.84,72.68c0,9.43-30.48,17.28-70.67,18.91-5,.2-10.25.31-15.57.31C44,91.9,5.37,83.29,5.37,72.68c0-10.36,36.76-18.81,82.78-19.22H91.6C139.23,53.45,177.84,62.06,177.84,72.68Z"/><path class="cls-3" d="M177.83,73a89.23,89.23,0,0,1-4.36,22.33,90.49,90.49,0,0,1-4.77,11.76,78.24,78.24,0,0,1-9,14.23,70.5,70.5,0,0,1-16.36,15,74.66,74.66,0,0,1-14.55,7.47l-1.28.48A85.7,85.7,0,0,1,117,147.35a104.3,104.3,0,0,1-13.63,2.15c-3.72.35-7.62.53-11.73.53-45.41,0-66.92-22.32-77.09-43A91.68,91.68,0,0,1,5.38,73C5.58,76,9,78.93,15,81.49h0C25,85.83,42.29,89.21,63.22,90.83c7.25.57,14.94.92,22.93,1,1.81,0,3.62,0,5.45,0C138.79,91.9,177.13,83.45,177.83,73Z"/><path class="cls-4" d="M107.17,91.59c-5,.2-10.25.31-15.57.31C44,91.9,5.37,83.29,5.37,72.68c0-10.36,36.76-18.81,82.78-19.22C75.21,68,89.91,81.71,107.17,91.59Z"/><path class="cls-5" d="M103.33,149.51c-3.72.34-7.62.52-11.73.52C10.11,150,5.6,78.14,5.38,73,6.05,83.05,41.5,91.24,86.15,91.86,74.88,110.57,88.68,133.07,103.33,149.51Z"/><path class="cls-6" d="M128.81,143.75a95.23,95.23,0,0,1-25.48,5.76c-3.72.34-7.62.52-11.73.52C10.11,150,5.6,78.14,5.38,73,5.58,76,9,78.94,15,81.5h0C25,85.84,42.29,89.21,63.22,90.84,32.48,112.82,64.68,146.68,128.81,143.75Z"/><path class="cls-7" d="M173.47,95.29a88,88,0,0,1-4.77,11.76,352.76,352.76,0,0,1-154.19,0A86.7,86.7,0,0,1,9.74,95.29,342.42,342.42,0,0,0,173.47,95.29Z"/><path class="cls-5" d="M91.6,97.27c-23.41,0-45.48-2-62.14-5.76C9.64,87.09,0,80.93,0,72.68S9.25,58.51,28.29,54.1c15.89-3.67,37.13-5.81,59.81-6h3.5c23.42,0,45.49,2.05,62.15,5.76,19.82,4.42,29.46,10.58,29.46,18.84,0,7.5-7.94,13.25-24.26,17.57-13.28,3.51-31.59,5.89-51.56,6.7C102.23,97.16,96.91,97.27,91.6,97.27ZM10.88,72.68c.85,1.06,5.19,5.16,23.51,8.9,15.6,3.2,35.91,5,57.21,5,5.17,0,10.33-.1,15.35-.31,17.94-.73,34.59-2.77,46.9-5.76C168,77,171.56,73.63,172.33,72.68c-.85-1.07-5.19-5.16-23.52-8.91-15.59-3.19-35.91-5-57.21-5H88.19C67.62,59,48.1,60.85,33.26,64,15.89,67.69,11.71,71.63,10.88,72.68Z"/><path class="cls-8" d="M30.89,57.63c-.62,4.78,10,9.64,20.13,13.17,3.67,1.27,7.27,2.37,10.28,3.23h0c4.22,1.21,7.25,1.94,7.57,2h36a100.05,100.05,0,0,1-5.18-28.33C99,34,100.37,24.49,95.8,22.84a12.61,12.61,0,0,0-4.48-.8A8.36,8.36,0,0,0,85,24.89v-.12c.07-1.33.53-13.24-2.64-20-1.41-3-3.53-5-6.72-4.68A16.16,16.16,0,0,0,67.09,3.6a19.72,19.72,0,0,0-5.79,8.13s-4.25-3-7.78-1.54c-1.62.69-3.09,2.32-3.92,5.63h0c-.17-.14-5.47-4.7-11.48-4.61a10.79,10.79,0,0,0-4.82,1.2h0A15.48,15.48,0,0,0,27.09,19c-8.48,15.5,14.62,30.7,14.62,30.7s-5.12-.62-8.35,2.55A8.72,8.72,0,0,0,30.89,57.63Z"/><path class="cls-9" d="M61.3,11.73c6.12,30,20.86,64.32,20.86,64.32h3.11C76,52.81,69.11,15.29,67.09,3.6A19.72,19.72,0,0,0,61.3,11.73Z"/><path class="cls-9" d="M89.64,76.05h4.43c-6.47-34.48-2.75-54-2.75-54h0A8.36,8.36,0,0,0,85,24.89C80.64,46.48,89.64,76.05,89.64,76.05Z"/><path class="cls-10" d="M71.59,1c1.23,9.63,6.5,48.2,15.22,75.05h2.83A157.53,157.53,0,0,1,85,24.89v-.12C85.07,22.85,86-1.09,75.62,0A15.76,15.76,0,0,0,71.59,1Z"/><path class="cls-10" d="M99.55,76.05h5.31c-9.65-27.77-1.75-50.58-9.06-53.21C95.8,22.84,88.46,39.41,99.55,76.05Z"/><path class="cls-9" d="M41.71,49.74,73.28,76.05c-28.95-30.65-40-63.64-40-63.64h0A15.48,15.48,0,0,0,27.09,19C18.61,34.54,41.71,49.74,41.71,49.74Z"/><path class="cls-9" d="M68.87,76.05C68,75.7,42.51,66,33.36,52.29a8.72,8.72,0,0,0-2.47,5.34C29.74,66.56,67.7,75.77,68.87,76.05Z"/><path class="cls-10" d="M38.12,11.21c.14.36,17.62,45.62,35.16,64.84h2.38S53.16,22.94,49.6,15.82h0C49.43,15.68,44.13,11.12,38.12,11.21Z"/><path class="cls-9" d="M49.6,15.82S61.1,51.33,75.66,76.05h2.41S59.32,44.76,53.52,10.19C51.9,10.88,50.43,12.51,49.6,15.82Z"/><path class="cls-11" d="M51,70.8c3.67,1.27,7.27,2.37,10.28,3.23h0c4.22,1.21,7.25,1.94,7.57,2h36a100.05,100.05,0,0,1-5.18-28.33C99,34,100.37,24.49,95.8,22.84a12.61,12.61,0,0,0-4.48-.8A8.36,8.36,0,0,0,85,24.89v-.12c.07-1.33.53-13.24-2.64-20h0S82.93,56.44,51,70.8Z"/><path class="cls-12" d="M97.73,32.2s-1,7.83-3.45,10A4.88,4.88,0,0,1,92,43.48a3.11,3.11,0,0,1-2.12-.24l-.34-.05a4.46,4.46,0,0,1-.79-.17C83,41.37,76.15,31.22,77.67,23.76A20.43,20.43,0,0,1,88,37.71c-.08-.47-.2-1.26-.32-2.27-.56-5.11-.85-16,5.88-20.85,0,0,3.45,11.53-.7,22.72C93.91,35.29,95.57,32.82,97.73,32.2Z"/><path class="cls-13" d="M88.77,43C83,41.37,76.15,31.22,77.67,23.76A94.14,94.14,0,0,0,88.77,43Z"/><path class="cls-13" d="M99,58.47A68.57,68.57,0,0,1,92.65,56L89.56,43.19,88,36.81l-.34-1.37c-.56-5.11-.85-16,5.88-20.85a122,122,0,0,0-2,22.23c0,1,0,2.1.12,3.14v0c.08,1.17.18,2.33.32,3.47.67,5.35,2.16,10.13,5.06,13Q98.27,57.6,99,58.47Z"/><path class="cls-14" d="M120,64.26a23.5,23.5,0,1,1-19.82-23.21h0a23.67,23.67,0,0,1,5.39,1.53h0A23.51,23.51,0,0,1,120,64.26Z"/><path class="cls-15" d="M110.1,83.4A23.5,23.5,0,1,1,91.78,41.23C75.5,58.36,94.32,78.93,110.1,83.4Z"/><path class="cls-16" d="M120,64.26A23.5,23.5,0,1,1,77.79,50h0S79.84,75.91,120,64.26Z"/><path class="cls-17" d="M114.76,79c8-13-17.14-35.88-14.62-37.95h0c.52-.41,2.15,0,5.39,1.53h0A23.51,23.51,0,0,1,114.75,79,0,0,0,0,0,114.76,79Z"/><path class="cls-18" d="M104.7,73a12.39,12.39,0,0,1-4,9.15h0A12.44,12.44,0,0,1,83.7,64a12.53,12.53,0,0,1,4.18-2.62h0a12.57,12.57,0,0,1,3.7-.77l.67,0A12.43,12.43,0,0,1,104.7,73Z"/><path class="cls-19" d="M100.69,82.18A12.44,12.44,0,1,1,87.88,61.39S82.87,77.93,100.69,82.18Z"/><path class="cls-20" d="M104.7,73a12.39,12.39,0,0,1-4,9.15h0a12.44,12.44,0,0,1-20.78-7.66S98.25,81.9,104.7,73Z"/><path class="cls-21" d="M103.6,67.91c-1,2.26-4.78,3-8.5,1.56s-6.17-4.59-5.25-7a3.5,3.5,0,0,1,1.74-1.84l.67,0A12.43,12.43,0,0,1,103.6,67.91Z"/><path class="cls-17" d="M96.6,72.25c-4.29,0-14.56-.74-12.9-8.24a12.53,12.53,0,0,1,4.18-2.62C84,67,90.28,72,96.6,72.25Z"/><path class="cls-18" d="M98.39,72.2a13.33,13.33,0,0,1-1.79,0C97.57,72.25,98.23,72.21,98.39,72.2Z"/><path class="cls-12" d="M124.94,59.46C111.78,48.59,104.83,41,107.11,38.18s8.48,3,8.48,3Z"/><path class="cls-22" d="M138.43,68.26l1.51-3.14S121.45,55.69,121.14,35a20.65,20.65,0,0,0-5.2-13.56c-1.65-1.73-3.44-2.76-5-2.81-3.2-.11-5.34,4-2.91,14.54a47,47,0,0,0,11.72,21.39,0,0,0,0,1,0,0c.17.17.33.35.49.52l.09.08c.24.26.49.51.74.76,0,0,0,0,0,0A63.49,63.49,0,0,0,138.43,68.26Z"/><path class="cls-22" d="M135.35,62.75a22.7,22.7,0,0,0-3.16-3.4c-9.32-8.86,9.37-22.41,3.07-27.71a7.92,7.92,0,0,0-.88-.65,4.29,4.29,0,0,0-4.57-.37c-3.27,1.8-5.38,8.35-4.41,17.81,0,.09,0,.17,0,.25.1.88.22,1.79.37,2.72l2.51,8.08S136.81,65.11,135.35,62.75Z"/><path class="cls-12" d="M139.07,66.94l.87-1.82S121.45,55.69,121.14,35c-.14-9.12-6-16.23-10.18-16.37,3.62,2.27,2.68,24.69,14.17,37.36C130.76,62.18,135.48,65.35,139.07,66.94Z"/><path class="cls-23" d="M135.35,62.75a22.7,22.7,0,0,0-3.16-3.4c-9.32-8.86,9.37-22.41,3.07-27.71-1.95-1.64-3.85-1.9-5.45-1,6.23-3.11-6.46,16.75.76,28C132.73,61.93,134.26,63,135.35,62.75Z"/><path class="cls-17" d="M119.77,54.54c-7.83-8.95.83-26.85-3.83-33.12-1.65-1.73-3.44-2.76-5-2.81-3.2-.11-5.34,4-2.91,14.54A47,47,0,0,0,119.77,54.54Z"/><path class="cls-17" d="M125.4,48.43c-.85-8.74,14.69-13.69,9-17.44h0a4.29,4.29,0,0,0-4.57-.37C126.54,32.42,124.43,39,125.4,48.43Z"/><path class="cls-12" d="M50.55,58c-4.11-16.57-8-26.12-11.48-25.28s-.92,9-.92,9Z"/><path class="cls-22" d="M52.66,73.93H49.17s-.51-20.74-19-30a20.59,20.59,0,0,1-10-10.55c-.86-2.23-1-4.29-.39-5.71,1.28-2.93,5.88-3.1,14.37,3.66A46.92,46.92,0,0,1,48.35,51.18v0l.26.66,0,.11c.12.34.25.67.36,1l0,0A63.22,63.22,0,0,1,52.66,73.93Z"/><path class="cls-22" d="M49,68.78a23.41,23.41,0,0,1-1.69-4.32c-4-12.24-24.27-1.24-26.32-9.21a7.87,7.87,0,0,1-.21-1.08,4.29,4.29,0,0,1,1.65-4.28c3-2.17,9.85-1.24,18,3.72l.22.13c.75.47,1.51,1,2.29,1.51L49.12,61S50.52,71.1,49,68.78Z"/><path class="cls-12" d="M51.2,73.93h-2s-.51-20.74-19-30C22,39.89,18.1,31.49,19.76,27.7,20.24,32,40.87,40.8,47.33,56.63,50.49,64.39,51.32,70,51.2,73.93Z"/><path class="cls-23" d="M49,68.78a23.41,23.41,0,0,1-1.69-4.32c-4-12.24-24.27-1.24-26.32-9.21-.64-2.47-.06-4.29,1.44-5.36-5.51,4.27,17.89,1.42,24.88,12.77C49.41,66.05,49.68,67.88,49,68.78Z"/><path class="cls-17" d="M48.35,51.18c-4.68-10.94-24.57-10.86-28.2-17.77-.86-2.23-1-4.29-.39-5.71,1.28-2.93,5.88-3.1,14.37,3.66A46.92,46.92,0,0,1,48.35,51.18Z"/><path class="cls-17" d="M40.41,53.61c-7.51-4.54-18.69,7.34-19.6.56h0a4.29,4.29,0,0,1,1.65-4.28C25.49,47.72,32.3,48.65,40.41,53.61Z"/><path class="cls-14" d="M111.2,64.86l11.28,22.45-.72.35C89.34,103.54,79.47,80.8,79.47,80.8Z"/><path class="cls-24" d="M133.65,53.58a25.16,25.16,0,0,1-5.28,29.63,25.14,25.14,0,0,1-39.62-7.08Z"/><line class="cls-7" x1="80.65" y1="80.2" x2="125.55" y2="57.65"/><path class="cls-14" d="M127.31,56.77A18,18,0,0,1,95.1,73Z"/><rect class="cls-24" x="87.3" y="65.12" width="47.22" height="1.85" transform="translate(-17.84 56.8) rotate(-26.67)"/><path class="cls-15" d="M121.76,87.66C89.34,103.54,79.47,80.8,79.47,80.8L83,79S94.63,100.81,121.76,87.66Z"/><path class="cls-17" d="M133.65,53.58a24.9,24.9,0,0,1,2.39,15,50.94,50.94,0,0,1-31.75-.27Z"/><path class="cls-25" d="M128.37,83.21a25.14,25.14,0,0,1-39.62-7.08l14.48-7.27S113,84.26,128.37,83.21Z"/><path class="cls-26" d="M118.73,79c2.27-1.14-.88-5.43-2.35-4.69S116.46,80.18,118.73,79Z"/><path class="cls-26" d="M106.48,79.94c2.41.79,3.22-4.47,1.65-5S104.06,79.14,106.48,79.94Z"/><path class="cls-26" d="M126.76,69.75c.8-2.42-4.46-3.23-5-1.65S126,72.16,126.76,69.75Z"/><path class="cls-26" d="M101.12,76.92c1.93,1.65,4.66-2.92,3.4-4S99.18,75.27,101.12,76.92Z"/><path class="cls-26" d="M123.75,75.1c1.65-1.93-2.92-4.66-4-3.4S122.1,77,123.75,75.1Z"/><path class="cls-26" d="M127.53,63.41c-.2-2.53-5.37-1.23-5.23.42S127.73,66,127.53,63.41Z"/><path class="cls-26" d="M112.81,80.7c2.53-.2,1.23-5.36-.42-5.23S110.27,80.9,112.81,80.7Z"/><path class="cls-18" d="M72.57,62.29a12.46,12.46,0,0,1-4,9.16h0a12.44,12.44,0,0,1-20.77-7.67,12.17,12.17,0,0,1-.09-1.49,12.45,12.45,0,0,1,8.06-11.64h0a12.63,12.63,0,0,1,3.71-.77l.67,0A12.43,12.43,0,0,1,72.57,62.29Z"/><path class="cls-19" d="M68.55,71.45a12.44,12.44,0,1,1-12.8-20.8S50.74,67.2,68.55,71.45Z"/><path class="cls-20" d="M72.57,62.29a12.46,12.46,0,0,1-4,9.16h0a12.44,12.44,0,0,1-20.77-7.67S66.11,71.16,72.57,62.29Z"/><path class="cls-21" d="M71.47,57.17c-1.06,2.27-4.79,3-8.5,1.57s-6.18-4.6-5.26-7a3.55,3.55,0,0,1,1.75-1.84l.67,0A12.46,12.46,0,0,1,71.47,57.17Z"/><path class="cls-17" d="M64.47,61.51c-4.29,0-14.56-.73-12.9-8.24a12.43,12.43,0,0,1,4.18-2.62C51.85,56.29,58.15,61.24,64.47,61.51Z"/><path class="cls-18" d="M66.25,61.46a11.73,11.73,0,0,1-1.78,0C65.43,61.51,66.1,61.47,66.25,61.46Z"/><path class="cls-27" d="M79.39,92.18h-.06c-6.87,1.38-13.11.71-18.09-1.68h0C53.52,86.8,48.86,79,49.65,68.15h0l13.94.93.52,0,3.31.22,25.84,10S97,88.62,79.39,92.18Z"/><path class="cls-28" d="M59.87,80.62c-3.08,3.24-1.76,6.71,1.37,9.89C53.52,86.8,48.86,79,49.65,68.14l13.94.93Z"/><path class="cls-29" d="M79.85,85.29a48.78,48.78,0,0,1-8.74-.82C57.59,82,49.65,74.09,49.65,68.15h0c0-4.51,4.59-7.92,14.81-7a29.81,29.81,0,0,1,5.28,1c10.57,3,22.74,11.4,23.52,17.23C93.73,82.81,90.17,85.36,79.85,85.29Z"/><path class="cls-27" d="M71.9,65.49c-4.25-2.62-12.14,11-12.14,11S74.33,67,71.9,65.49Z"/><path class="cls-27" d="M78.89,68.45c-4.25-2.61-12.14,11-12.14,11S81.32,70,78.89,68.45Z"/><path class="cls-27" d="M84.43,72.17c-3.7-2.28-10.56,9.56-10.56,9.56S86.54,73.47,84.43,72.17Z"/><path class="cls-27" d="M88.05,75.81c-2.43-1.49-6.93,6.27-6.93,6.27S89.44,76.66,88.05,75.81Z"/><path class="cls-27" d="M65.59,63.71c-3-1.81-8.42,7.63-8.42,7.63S67.28,64.75,65.59,63.71Z"/><path class="cls-27" d="M59.94,63.63c-1.84-1.13-5.25,4.75-5.25,4.75S61,64.27,59.94,63.63Z"/><path class="cls-30" d="M79.33,92.19c-6.87,1.38-13.11.71-18.09-1.68h0C53.52,86.8,48.86,79,49.65,68.15h0c0-4.51,4.59-7.92,14.81-7a29.81,29.81,0,0,1,5.28,1c-4.31-.24-6,2.72-5.63,7s2.92,10.2,7,15.36A37.29,37.29,0,0,0,79.33,92.19Z"/><path class="cls-31" d="M51.66,75.31c0,.29-.09.58-.14.87,0,.13-.05.27-.08.4l0,.1a.11.11,0,0,1,0,0h0v0a1.84,1.84,0,0,1,0,.25c0,.06,0,.12-.05.18a.27.27,0,0,1,0,.12c0,.15-.07.29-.11.43l0,.1c0,.16-.09.32-.14.48l0,.13s0,.09,0,.13v0l0,.1h0s0,0,0,0,0,0,0,0a.14.14,0,0,0,0,.06l0,.08-.1.27-.08.2-.06.16-.06.14a.08.08,0,0,1,0,0l-.09.24h0a.69.69,0,0,1,0,.13s0,0,0,0l0,.12a.08.08,0,0,0,0,0l0,.1c0,.06-.05.12-.08.17a1.86,1.86,0,0,1-.1.2.08.08,0,0,1,0,0,0,0,0,0,1,0,0l0,.07h0l-.19.36a0,0,0,0,0,0,0l-.17.29a.41.41,0,0,1,0,.09l-.06.09a2,2,0,0,1-.12.21l-.07.11a.61.61,0,0,1-.07.1h0l0,0c-.08.13-.16.25-.25.37l0,.06-.13.18-.06.09L48.6,83l-.15.2-.14.18-.08.09-.06.08-.1.12-.09.1,0,0,0,0-.26.29h0l-.11.12-.22.22-.19.18a.3.3,0,0,1-.08.08l-.06.06-.06.06-.11.09-.08.07-.23.2-.06.06h0l-.07.06-.07.06a0,0,0,0,0,0,0h0l-.12.09-.09.08,0,0a.05.05,0,0,1,0,0,.1.1,0,0,1-.05,0h0l-.07,0,0,0-.07.06-.24.16-.39.27-5.33,3.43c-.28.19-.58.36-.87.52l-.37.19-.08,0-.06,0-.29.14,0,0,0,0-.46.2L37.2,91l-.11,0-.06,0-.29.1h0l-.08,0-.3.09-.18.05-.13,0c-.24.07-.48.13-.73.18h0l-.35.07h-.08l-.27,0h0l-.24,0-.17,0-.43,0-.42,0-.24,0h-.4s-.06,0-.08,0H31.09l-1.63-.36q-2.28-.51-4.38-1.05h0l0,0-.42-.17-.1,0-.25-.1L23.93,90l-.23-.11-.25-.12-.1,0-.51-.27-.13-.06-.21-.12a1.82,1.82,0,0,1-.27-.15l-.09,0-.48-.27h0l-.15-.09-.41-.25-.55-.36h0l-.1-.07L20,87.7l-.44-.32c-.17-.11-.32-.23-.48-.35L19,87a3.24,3.24,0,0,1-.31-.24l-.12-.09-.24-.19c-.16-.13-.32-.26-.47-.4l-.22-.18-.34-.3,0,0-.48-.43-.06-.06-.45-.43A32.91,32.91,0,0,1,11.69,79c-.29-.45-.56-.89-.82-1.35a3.79,3.79,0,0,1-.2-.34l-.36-.66s-.05-.1-.08-.14a3.59,3.59,0,0,1-.17-.34c-.05-.08-.09-.16-.13-.24s-.11-.23-.17-.34L9.51,75c-.1-.21-.2-.43-.29-.64l0-.07L9,73.88c-.05-.11-.1-.23-.14-.34s-.14-.34-.2-.51-.17-.44-.25-.66l-.16-.45c0-.14-.09-.27-.13-.4-.11-.32-.2-.64-.3-1a.19.19,0,0,0,0-.07l-.09-.35-.14-.5c-.11-.44-.21-.87-.29-1.3h0c0-.19-.08-.38-.11-.56a1,1,0,0,1,0-.17C7,67,6.93,66.36,6.87,65.73c0,0,0-.06,0-.09,0-.2,0-.4-.05-.6h0c0-.22,0-.43,0-.65s0-.35,0-.52v-.24c0-.44,0-.89,0-1.33A21.78,21.78,0,0,1,7,60a.13.13,0,0,1,0-.06H7c.08-.51.17-1,.28-1.49a14.75,14.75,0,0,1,6.27-9.5l5.33-3.44a14,14,0,0,1,7.65-2.17h.83l.41,0,.24,0h.12l.25,0h0l.32,0,.34.05.27,0h.07l.13,0,.14,0h0l.3.06.13,0,.19,0c.23.05.47.1.7.17l.26.07.32.08,1.75,2.72,7.5,11.63.38.6,1,1.56.2.32.18.28,5.1,7.92.41.62,1.84,2.86Z"/><path class="cls-32" d="M30.07,43.72,7.23,58.44a14.78,14.78,0,0,1,6.27-9.5l5.33-3.44A14.84,14.84,0,0,1,30.07,43.72Z"/><path class="cls-33" d="M51.52,76.18c0,.13-.05.27-.08.4l0,.1a.11.11,0,0,1,0,0h0v0a1.84,1.84,0,0,1,0,.25c0,.06,0,.12-.05.18a.27.27,0,0,1,0,.12c0,.15-.07.29-.11.43l0,.1c0,.16-.09.32-.14.48l0,.13s0,.09,0,.13v0l0,.1h0s0,0,0,0,0,0,0,0a.14.14,0,0,0,0,.06l0,.08-.1.27-.08.2-.06.16-.06.14a.08.08,0,0,1,0,0l-.09.24h0a.69.69,0,0,1,0,.13s0,0,0,0l0,.12a.08.08,0,0,0,0,0l0,.1c0,.06-.05.12-.08.17a1.86,1.86,0,0,1-.1.2.08.08,0,0,1,0,0l0,.09h0l-.19.36a0,0,0,0,0,0,0l-.17.29a.41.41,0,0,1,0,.09l-.06.09a2,2,0,0,1-.12.21l-.07.11a.61.61,0,0,1-.07.1h0l0,0c-.08.13-.16.25-.25.37l0,.06-.13.18-.06.09L48.6,83l-.15.2-.14.18-.08.09-.06.08-.1.12-.09.1,0,0,0,0-.26.29h0l-.11.12-.22.22-.19.18a.3.3,0,0,1-.08.08l-.06.06-.06.06-.11.09-.08.07-.23.2-.06.06h0l-.07.06-.07.06a0,0,0,0,0,0,0l-.13.09-.09.08,0,0,0,0-.06,0h0l-.07,0,0,0-.07.06-.24.16-.39.27-5.33,3.43c-.29.19-.58.36-.87.52l-.37.19-.08,0-.06,0-.29.14,0,0,0,0-.46.2L37.2,91l-.11,0-.06,0-.29.1h0l-.08,0-.3.09-.18.05-.13,0-.36.1-.37.08-.35.07h0l-.21,0h-.12l-.24,0-.17,0-.43,0-.42,0-.24,0h-.4s-.06,0-.08,0H31.09l-1.63-.36q-2.28-.51-4.38-1.05h0l0,0-.42-.17-.35-.15L23.93,90l-.23-.11-.25-.12-.1,0-.51-.27-.13-.06-.21-.12a1.82,1.82,0,0,1-.27-.15l-.09,0-.48-.27h0l-.15-.09-.23-.14-.18-.11-.55-.36h0L20.43,88,20,87.7l-.44-.32c-.17-.11-.32-.23-.48-.35L19,87a3.24,3.24,0,0,1-.31-.24l-.12-.09-.24-.19c-.16-.13-.32-.26-.47-.4l-.22-.18-.34-.3,0,0-.48-.43-.06-.06-.45-.43A32.91,32.91,0,0,1,11.69,79c-.29-.45-.56-.89-.82-1.35a3.79,3.79,0,0,1-.2-.34l-.36-.66s-.05-.1-.08-.14a3.59,3.59,0,0,1-.17-.34c-.05-.08-.09-.16-.13-.24s-.11-.23-.17-.34L9.51,75c-.1-.21-.2-.43-.29-.64l0-.07L9,73.88c-.05-.11-.1-.23-.14-.34s-.14-.34-.2-.51-.17-.44-.25-.66l-.16-.45c0-.14-.09-.27-.13-.4-.11-.32-.2-.64-.3-1a.19.19,0,0,0,0-.07l-.09-.35-.14-.5c-.11-.44-.21-.87-.29-1.3h0c0-.19-.08-.38-.11-.56a1,1,0,0,1,0-.17C7,67,6.93,66.36,6.87,65.73c0,0,0-.06,0-.09,0-.2,0-.4-.05-.6h0c0-.22,0-.43,0-.65s0-.35,0-.52v-.24c0-.44,0-.89,0-1.33.06,5.44,4,9.61,9.73,12.38.92.43,1.88.84,2.89,1.2A43.8,43.8,0,0,0,28.08,78c.49.07,1,.14,1.47.19l.71.08,1.37.13.72,0c.56,0,1.13.07,1.7.09,1.37,0,2.75,0,4.12,0l.83,0c.62,0,1.23-.07,1.84-.13l1.08-.11a47.31,47.31,0,0,0,6.19-1.09l1.07-.29Q50.38,76.57,51.52,76.18Z"/><path class="cls-34" d="M51.52,76.18c0,.13-.05.27-.08.4l0,.1a.11.11,0,0,1,0,0h0v0a1.84,1.84,0,0,1,0,.25c0,.06,0,.12-.05.18a.27.27,0,0,1,0,.12c0,.15-.07.29-.11.43l0,.1c0,.16-.09.32-.14.48l0,.13s0,.09,0,.13v0l0,.1h0s0,0,0,0,0,0,0,0a.14.14,0,0,0,0,.06l0,.08-.1.27-.08.2a3.45,3.45,0,0,1-.14.34l-.09.24h0a.69.69,0,0,1,0,.13l-.09.2,0,.1-.18.37a.08.08,0,0,1,0,0,0,0,0,0,1,0,0l0,.08-.19.36a0,0,0,0,0,0,0l-.17.29,0,.09-.06.09-.12.21-.07.11a.61.61,0,0,1-.07.1h0l0,0c-.08.13-.16.25-.25.37l0,.06-.13.18L48.6,83l-.29.38-.08.09-.06.08-.1.12-.09.1,0,0,0,0-.26.29h0l-.11.12-.22.22-.27.26-.06.06-.06.06-.11.09-.08.07-.23.2-.08.07-.07.06-.07.06a0,0,0,0,0,0,0h0l-.12.09-.09.08,0,0,0,0-.06,0h0l-.07,0,0,0-.07.06-.24.16-.39.27-5.33,3.43c-.29.19-.58.36-.87.52l-.45.23-.06,0-.29.14,0,0,0,0-.46.2L37.2,91l-.11,0-.06,0-.29.1h0l-.08,0h0l-.3.09-.18.05-.13,0-.36.1-.37.08h0l-.35.07h-.08l-.17,0h-.12l-.24,0-.17,0-.43,0-.42,0-.24,0h-.4s-.06,0-.08,0H31.09l-1.63-.36q-2.28-.51-4.38-1.05h0l0,0-.52-.22L23.93,90l-.23-.11-.25-.12-.1,0-.51-.27-.13-.06-.48-.27-.09,0-.48-.27h0l-.38-.23-.18-.11-.55-.36h0L20.43,88,20,87.7l-.44-.32c-.17-.11-.32-.23-.48-.35L19,87a3.24,3.24,0,0,1-.31-.24l-.12-.09-.24-.19c-.16-.13-.32-.26-.47-.4l-.22-.18-.34-.3,0,0-.48-.43-.06-.06-.45-.43a26.41,26.41,0,0,0,10.48.58c1-.12,2.09-.29,3.16-.51a50.23,50.23,0,0,0,8.16-2.4,54.06,54.06,0,0,0,10-5.1l1.07-.29Q50.38,76.57,51.52,76.18Z"/><path class="cls-22" d="M46.93,56.26a31.07,31.07,0,0,1,4.64,11.91,23.82,23.82,0,0,1,.09,7.14c-.67,4.66-2.87,8.62-6.54,11-8.26,5.32-20.84.51-28.1-10.76a30.27,30.27,0,0,1-4.89-14c-.51-6.77,1.77-12.85,6.7-16,3.66-2.36,8.18-2.73,12.71-1.42C37.21,45.73,42.89,50,46.93,56.26Z"/><path class="cls-35" d="M45.47,57.2c3.64,5.66,5,11.92,4.27,17.19a13.76,13.76,0,0,1-5.91,9.91c-7.45,4.81-18.8.46-25.35-9.7s-5.82-22.3,1.63-27.1a13.74,13.74,0,0,1,11.47-1.28C36.7,47.7,41.83,51.55,45.47,57.2Z"/><path class="cls-36" d="M22.71,61.5c-2.6-6.83,2.75-15.87,9.54-10.87s1.57,10.06,9.39,10.22,7.75,14,1.54,13.64C34,73.89,35.24,82.9,28.08,78s-9.92-5.9-9.27-10.52S23.86,64.54,22.71,61.5Z"/><path class="cls-22" d="M22.41,51.06h0c-2.94,1.9,4.11,7.59,4.66,7.24h0C27.63,57.94,25.35,49.17,22.41,51.06Z"/><path class="cls-37" d="M51.57,68.17a23.82,23.82,0,0,1,.09,7.14c-.67,4.66-2.87,8.62-6.54,11-8.26,5.32-20.84.51-28.1-10.76a30.27,30.27,0,0,1-4.89-14S33.77,77.81,51.57,68.17Z"/><path class="cls-38" d="M36.81,62.79c2.34,3.64,2.08,8-.59,9.7s-6.73.17-9.08-3.47-2.08-8,.59-9.71S34.46,59.15,36.81,62.79Z"/><path class="cls-39" d="M23.46,52.69h0c-1.61,1,2.26,4.17,2.56,4h0C26.33,56.47,25.08,51.65,23.46,52.69Z"/><path class="cls-22" d="M41.5,80.69h0c2.94-1.9-4.11-7.59-4.66-7.24h0C36.29,73.81,38.56,82.58,41.5,80.69Z"/><path class="cls-39" d="M40.45,79.06h0c1.62-1-2.25-4.17-2.56-4h0C37.59,75.28,38.84,80.1,40.45,79.06Z"/><path class="cls-22" d="M44.8,57.8h0c-1.9-2.93-7.59,4.12-7.24,4.67h0C37.92,63,46.69,60.74,44.8,57.8Z"/><path class="cls-39" d="M43.17,58.85h0c-1.05-1.62-4.17,2.25-4,2.56h0C39.39,61.71,44.21,60.46,43.17,58.85Z"/><path class="cls-22" d="M19.29,74.23h0c1.9,2.94,7.6-4.11,7.24-4.66h0C26.17,69,17.4,71.29,19.29,74.23Z"/><path class="cls-39" d="M20.92,73.18h0c1,1.61,4.16-2.26,4-2.56h0C24.7,70.32,19.89,71.57,20.92,73.18Z"/><path class="cls-22" d="M15.39,59.88h0c-1.18,3.29,7.88,3.55,8.1,2.93h0C23.7,62.19,16.58,56.59,15.39,59.88Z"/><path class="cls-39" d="M17.21,60.54h0c-.65,1.81,4.32,2,4.44,1.61h0C21.78,61.81,17.86,58.73,17.21,60.54Z"/><path class="cls-22" d="M48.53,71.87h0c1.19-3.29-7.87-3.54-8.09-2.93h0C40.21,69.56,47.34,75.16,48.53,71.87Z"/><path class="cls-39" d="M46.7,71.21h0c.66-1.8-4.32-1.95-4.44-1.61h0C42.14,69.94,46.05,73,46.7,71.21Z"/><path class="cls-22" d="M33.38,48.31h0c-3.49-.28-1.35,8.53-.7,8.58h0C33.34,56.94,36.87,48.59,33.38,48.31Z"/><path class="cls-39" d="M33.22,50.24h0c-1.91-.15-.74,4.69-.38,4.72h0C33.2,55,35.14,50.4,33.22,50.24Z"/><path class="cls-22" d="M30.53,83.44h0c3.48.28,1.34-8.52.69-8.58h0C30.57,74.81,27.05,83.16,30.53,83.44Z"/><path class="cls-39" d="M30.69,81.51h0c1.92.15.74-4.68.38-4.71h0C30.71,76.77,28.78,81.35,30.69,81.51Z"/><path class="cls-31" d="M151.18,37.19,128.26,72.75c.05.33.1.67.16,1a17.09,17.09,0,0,0,7.29,11.52l6.07,3.91c9.41,6.07,23.74.58,32-12.25a33.51,33.51,0,0,0,5.63-19,25,25,0,0,0-.23-2.63.17.17,0,0,1,0-.07h0c-.08-.58-.19-1.14-.31-1.7a16.88,16.88,0,0,0-7.14-10.82l-6.07-3.91a16.88,16.88,0,0,0-12.81-2C152.29,36.89,151.74,37,151.18,37.19Z"/><path class="cls-32" d="M152.85,36.77l26,16.77a16.88,16.88,0,0,0-7.14-10.82l-6.07-3.91A16.88,16.88,0,0,0,152.85,36.77Z"/><path class="cls-33" d="M128.42,73.75a17.09,17.09,0,0,0,7.29,11.52l6.07,3.91c7.64,4.93,18.53,2.24,26.78-5.82a37.12,37.12,0,0,0,5.23-6.43,33.51,33.51,0,0,0,5.63-19c-.15,15.37-27.31,21.88-47.12,17C131,74.56,129.68,74.18,128.42,73.75Z"/><path class="cls-34" d="M128.42,73.75a17.09,17.09,0,0,0,7.29,11.52l6.07,3.91c7.64,4.93,18.53,2.24,26.78-5.82-9.87,2.9-24.84-1-36.26-8.47C131,74.56,129.68,74.18,128.42,73.75Z"/><path class="cls-22" d="M133.65,51.06a35.43,35.43,0,0,0-5.29,13.57,27,27,0,0,0-.1,8.12c.77,5.32,3.27,9.83,7.45,12.52,9.41,6.07,23.74.58,32-12.25a34.73,34.73,0,0,0,5.57-16c.58-7.71-2-14.63-7.63-18.25-4.18-2.7-9.33-3.11-14.48-1.62C144.72,39.06,138.24,43.93,133.65,51.06Z"/><path class="cls-35" d="M135.31,52.14c-4.15,6.43-5.73,13.56-4.86,19.56.69,4.8,3,8.87,6.73,11.3,8.48,5.47,21.41.52,28.87-11s6.63-25.4-1.86-30.87c-3.77-2.43-8.41-2.81-13.06-1.46C145.3,41.31,139.46,45.7,135.31,52.14Z"/><path class="cls-36" d="M161.24,57c2.95-7.79-3.13-18.08-10.87-12.38s-1.79,11.45-10.7,11.63-8.82,16-1.75,15.54c10.4-.68,9,9.58,17.19,4s11.3-6.72,10.57-12S159.92,60.49,161.24,57Z"/><path class="cls-22" d="M161.58,45.14h0c3.34,2.16-4.69,8.64-5.31,8.24h0C155.64,53,158.23,43,161.58,45.14Z"/><path class="cls-37" d="M128.36,64.63a27,27,0,0,0-.1,8.12c.77,5.32,3.27,9.83,7.45,12.52,9.41,6.07,23.74.58,32-12.25a34.73,34.73,0,0,0,5.57-16S148.64,75.61,128.36,64.63Z"/><path class="cls-38" d="M145.18,58.49c-2.67,4.15-2.37,9.1.67,11.06s7.67.18,10.34-4,2.37-9.1-.67-11.06S147.85,54.35,145.18,58.49Z"/><path class="cls-39" d="M160.38,47h0c1.84,1.18-2.57,4.74-2.92,4.52h0C157.12,51.3,158.54,45.81,160.38,47Z"/><path class="cls-22" d="M139.83,78.88h0c-3.35-2.16,4.68-8.64,5.31-8.24h0C145.77,71.05,143.18,81,139.83,78.88Z"/><path class="cls-39" d="M141,77h0c-1.83-1.19,2.58-4.75,2.92-4.53h0C144.29,72.72,142.86,78.21,141,77Z"/><path class="cls-22" d="M136.08,52.81h0c2.16-3.35,8.64,4.68,8.24,5.31h0C143.91,58.75,133.92,56.16,136.08,52.81Z"/><path class="cls-39" d="M137.93,54h0c1.18-1.83,4.74,2.58,4.52,2.92h0C142.24,57.27,136.75,55.84,137.93,54Z"/><path class="cls-22" d="M165.13,71.53h0c-2.16,3.34-8.64-4.68-8.24-5.31h0C157.29,65.59,167.28,68.18,165.13,71.53Z"/><path class="cls-39" d="M163.27,70.33h0c-1.19,1.84-4.75-2.57-4.53-2.92h0C159,67.07,164.45,68.49,163.27,70.33Z"/><path class="cls-22" d="M169.58,55.18h0c1.35,3.75-9,4-9.22,3.34h0C160.1,57.81,168.22,51.44,169.58,55.18Z"/><path class="cls-39" d="M167.5,55.93h0c.74,2.06-4.92,2.22-5.06,1.84h0C162.3,57.38,166.75,53.88,167.5,55.93Z"/><path class="cls-22" d="M131.83,68.84h0c-1.36-3.75,9-4,9.22-3.34h0C141.3,66.21,133.19,72.59,131.83,68.84Z"/><path class="cls-39" d="M133.91,68.09h0c-.74-2.06,4.93-2.22,5.07-1.83h0C139.11,66.64,134.65,70.15,133.91,68.09Z"/><path class="cls-22" d="M149.08,42h0c4-.31,1.54,9.72.79,9.78h0C149.13,51.84,145.11,42.33,149.08,42Z"/><path class="cls-39" d="M149.26,44.21h0c2.18-.18.84,5.33.44,5.36h0C149.28,49.61,147.08,44.38,149.26,44.21Z"/><path class="cls-22" d="M152.32,82h0c-4,.32-1.54-9.71-.79-9.77h0C152.28,72.19,156.29,81.69,152.32,82Z"/><path class="cls-39" d="M152.14,79.82h0c-2.18.17-.84-5.34-.43-5.37h0C152.12,74.42,154.32,79.64,152.14,79.82Z"/><path class="cls-18" d="M144.87,81.74a12.46,12.46,0,0,1-4,9.16h0a12.44,12.44,0,0,1-20.77-7.67,12.17,12.17,0,0,1-.09-1.49,12.45,12.45,0,0,1,8.06-11.64h0a12.63,12.63,0,0,1,3.71-.77l.67,0a12.43,12.43,0,0,1,12.44,12.44Z"/><path class="cls-19" d="M140.85,90.9a12.44,12.44,0,1,1-12.8-20.8S123,86.65,140.85,90.9Z"/><path class="cls-20" d="M144.87,81.74a12.46,12.46,0,0,1-4,9.16h0a12.44,12.44,0,0,1-20.77-7.67S138.41,90.61,144.87,81.74Z"/><path class="cls-21" d="M143.77,76.62c-1.06,2.27-4.79,3-8.5,1.57s-6.18-4.6-5.26-7a3.55,3.55,0,0,1,1.75-1.84l.67,0A12.46,12.46,0,0,1,143.77,76.62Z"/><path class="cls-17" d="M136.77,81c-4.29,0-14.56-.73-12.9-8.24a12.43,12.43,0,0,1,4.18-2.62C124.15,75.74,130.45,80.69,136.77,81Z"/><path class="cls-18" d="M138.55,80.91a11.73,11.73,0,0,1-1.78,0C137.73,81,138.4,80.92,138.55,80.91Z"/><path class="cls-18" d="M54.24,86.26a17.45,17.45,0,0,1-2.43,8.89C46.24,94.51,41,93.74,36,92.84c-2.28-.41-4.47-.86-6.58-1.33q-5.52-1.23-10-2.64a.5.5,0,0,1,0-.12c0-.13,0-.25-.05-.38s0,0,0,0,0-.26,0-.38a2.46,2.46,0,0,1,0-.26l0-.21v-.26c0-.14,0-.28,0-.42v0c0-.18,0-.35,0-.52,0-.32,0-.63,0-.93l0-.46c0-.18,0-.35.05-.52s0-.23.05-.34,0-.34.06-.5.06-.3.08-.45.05-.26.08-.39.07-.33.11-.49.07-.29.11-.43l.12-.43c.07-.25.15-.5.23-.75l.07-.18.12-.33c.05-.14.11-.28.16-.41l.18-.41a3.52,3.52,0,0,1,.18-.4c.06-.13.12-.26.19-.39s.09-.19.14-.29l.06-.1.21-.38.22-.38c.07-.13.15-.25.23-.37.23-.37.48-.73.74-1.08.08-.12.17-.23.26-.34l.27-.34c.09-.12.19-.23.29-.34l.28-.32.07-.08.45-.47.08-.08.31-.3c.31-.29.64-.58,1-.86l.69-.53.35-.26.73-.48.37-.22c.22-.13.44-.26.67-.38L29,70.6l.4-.19.48-.22.32-.13.41-.16h0a17.26,17.26,0,0,1,5.2-1.08c.31,0,.63,0,.95,0A17.47,17.47,0,0,1,54.16,84.6C54.21,85.14,54.24,85.7,54.24,86.26Z"/><path class="cls-19" d="M29.46,91.51q-5.52-1.23-10-2.64h0v-.12c0-.13,0-.25-.05-.38s0,0,0,0,0-.26,0-.38a2.46,2.46,0,0,1,0-.26l0-.21v-.26c0-.14,0-.28,0-.42v0c0-.18,0-.35,0-.52,0-.32,0-.63,0-.93l0-.46c0-.18,0-.35.05-.52s0-.23.05-.34,0-.34.06-.5.06-.3.08-.45.05-.26.08-.39.07-.33.11-.49.07-.29.11-.43l.12-.43c.07-.25.15-.5.23-.75l.07-.18.12-.33c.05-.14.11-.28.16-.41l.18-.41a3.52,3.52,0,0,1,.18-.4c.06-.13.12-.26.19-.39s.09-.19.14-.29l.06-.1.21-.38.22-.38c.07-.13.15-.25.23-.37.23-.37.48-.73.74-1.08.08-.12.17-.23.26-.34l.27-.34c.09-.12.19-.23.29-.34l.28-.32.07-.08.45-.47.08-.08.31-.3.12-.11.32-.29.53-.46.69-.53.35-.26.73-.48.37-.22c.22-.13.44-.26.67-.38L29,70.6l.4-.19.48-.22.32-.13.41-.16a27.64,27.64,0,0,0-.89,8.16,25.39,25.39,0,0,0,.22,2.54,21.66,21.66,0,0,0,.51,2.65,19.75,19.75,0,0,0,4.94,9c.21.22.43.43.66.64C33.76,92.43,31.57,92,29.46,91.51Z"/><path class="cls-20" d="M54.24,86.26a17.45,17.45,0,0,1-2.43,8.89C46.24,94.51,41,93.74,36,92.84c-2.28-.41-4.47-.86-6.58-1.33q-5.52-1.23-10-2.64a.5.5,0,0,1,0-.12c0-.13,0-.25-.05-.38s0,0,0,0a64.91,64.91,0,0,0,16,3.86C42.45,92.87,50.09,92,54.24,86.26Z"/><path class="cls-21" d="M52.69,79.06c-1.48,3.18-6.73,4.18-11.94,2.2-5.38-2-8.68-6.45-7.39-9.86a4.87,4.87,0,0,1,2.45-2.59c.32,0,.63,0,.95,0A17.49,17.49,0,0,1,52.69,79.06Z"/><path class="cls-17" d="M42.85,85.16c-6,0-20.45-1-18.12-11.58A17.56,17.56,0,0,1,30.6,69.9C25.13,77.82,34,84.78,42.85,85.16Z"/><path class="cls-18" d="M45.36,85.08a17.5,17.5,0,0,1-2.51.08C44.21,85.16,45.14,85.1,45.36,85.08Z"/><path class="cls-40" d="M179.39,64.52a30.92,30.92,0,0,1-7.07,8.16c-.76.95-4.34,4.35-18.47,7.78-12.31,3-29,5-46.9,5.76-5,.21-10.18.31-15.35.31A349,349,0,0,1,54.16,84.6Q51,84.26,48,83.84c-1-.13-2-.26-2.93-.41q-3.6-.53-6.94-1.14c-1.26-.22-2.49-.46-3.69-.71l-2-.41-.31-.07h0L31.55,81l-1.62-.37h-.05l-.81-.2q-1.92-.47-3.6-.93c-1.56-.44-2.95-.87-4.21-1.3h0l-.12,0c-1.18-.4-2.24-.79-3.17-1.18-4.92-2-6.59-3.64-7.09-4.26a21.82,21.82,0,0,1-3.6-4.34h0a14.94,14.94,0,0,1-2-5.07C1.74,66,0,69.17,0,72.68c0,6.72,6.39,12,19.47,16.19h0q2.61.82,5.58,1.59h0q2.1.54,4.38,1.05l1.63.36h0c1.6.34,3.25.66,4.94,1,4.91.9,10.2,1.67,15.77,2.31A355.93,355.93,0,0,0,91.6,97.27c5.32,0,10.63-.11,15.79-.32,20-.81,38.28-3.19,51.56-6.7,16.32-4.32,24.26-10.07,24.26-17.57A11.11,11.11,0,0,0,179.39,64.52Z"/></g></g></svg>